<?xml version="1.0" encoding="UTF-8"?>
<!DOCTYPE svg PUBLIC "-//W3C//DTD SVG 1.1//EN" "http://www.w3.org/Graphics/SVG/1.1/DTD/svg11.dtd">
<!-- Creator: CorelDRAW 2020 (64 Bit) -->
<svg xmlns="http://www.w3.org/2000/svg" xml:space="preserve" width="620px" height="420px" version="1.1" style="shape-rendering:geometricPrecision; text-rendering:geometricPrecision; image-rendering:optimizeQuality; fill-rule:evenodd; clip-rule:evenodd"
viewBox="0 0 62256600 42122100"
 xmlns:xlink="http://www.w3.org/1999/xlink"
 xmlns:xodm="http://www.corel.com/coreldraw/odm/2003">
 <defs>
  <style type="text/css">
   <![CDATA[
    .fil7 {fill:#209EBB}
    .fil5 {fill:#209EBB}
    .fil4 {fill:#23465D}
    .fil3 {fill:#679A17}
    .fil6 {fill:#679A17}
    .fil1 {fill:#23465D;fill-rule:nonzero}
    .fil2 {fill:#679A17;fill-rule:nonzero}
    .fil0 {fill:gray;fill-rule:nonzero}
   ]]>
  </style>
 </defs>
 <g id="Camada_x0020_1">
  <metadata id="CorelCorpID_0Corel-Layer"/>
  <g id="_1905325582160">
   <path class="fil0" d="M1420000 39928100l0 -347100c0,-114200 -26500,-192800 -80100,-235000 -53600,-42200 -169500,-63400 -348200,-63400l-731500 0 0 945400 731500 0c175500,0 290800,-21600 346000,-64900 54700,-43400 82300,-121900 82300,-235000zm-1419700 1466200l0 -2361800 994700 0c265300,0 447800,39500 548000,118000 100100,78600 149900,218800 149900,420700l0 356900c0,207900 -49300,351400 -148300,431000 -99100,79600 -282100,119100 -549600,119100l-734800 0 0 916100 -259900 0zm2170700 -997300l945400 0 0 -65000c0,-156500 -28100,-262600 -83900,-318900 -56300,-55800 -167300,-83900 -333000,-83900l-115800 0c-165200,0 -275100,28100 -330400,83900 -54600,56300 -82300,162400 -82300,318900l0 65000zm415900 1020100c-249600,0 -424000,-48700 -523600,-146200 -99100,-96900 -148900,-268000 -148900,-512800l0 -395800c0,-245800 49300,-416900 148400,-514400 98500,-97400 272300,-146200 520900,-146200l115800 0c249600,0 424500,48800 524100,146200 99700,97500 149500,268600 149500,514400l0 252300 -1202100 1700c-1000,16800 -1600,35700 -2100,55700 -500,20600 -1100,49300 -1100,86100 0,172700 27600,288100 82800,346500 54700,59100 165700,88300 333100,88300l115800 0c148900,0 252400,-21600 310800,-64400 57900,-42800 92100,-117500 101300,-224700l258200 0c-12400,181300 -70900,311800 -174900,392500 -103900,80700 -268000,120800 -492700,120800l-115300 0zm1169500 -519800l250200 0 0 37900c0,102800 31900,173800 95300,212800 63400,38400 190600,57900 382300,57900 214400,0 346500,-19500 396300,-59000 49800,-39000 74700,-114800 74700,-226900 0,-108800 -20600,-181900 -61200,-218200 -40500,-36800 -142400,-59000 -304800,-67700 -60600,-3200 -141900,-6500 -244200,-9700 -224200,-6000 -357300,-21700 -399600,-45500 -63400,-35200 -108800,-82900 -135400,-142900 -27000,-60100 -40600,-146800 -40600,-260000 0,-185100 47100,-310200 141300,-375700 93700,-65500 301100,-98600 621700,-98600 248500,0 416300,31400 504600,93700 88200,62300 132700,172200 132700,328700l-247000 0 0 -15700c0,-74200 -31900,-125100 -95800,-153300 -64400,-28100 -191700,-42200 -381700,-42200 -184700,0 -301600,16800 -352500,50900 -50900,33600 -76400,104500 -76400,212200 0,65600 4900,111000 14100,137600 9700,26500 26500,46600 50900,60100 49800,26500 159700,41700 330300,46000 43300,1100 76900,2200 100200,3300 139700,5400 249000,12400 328600,21600 79600,8700 136000,21100 170100,37400 74100,33500 126700,82300 158100,145600 30800,63900 46500,156000 46500,276700 0,122400 -15100,216100 -46000,279400 -30800,63300 -85500,119700 -165100,168400 -35800,23300 -94800,40100 -176000,49800 -81800,10300 -194900,15200 -340100,15200 -296100,0 -492100,-34100 -588000,-102400 -95800,-68700 -143500,-192700 -143500,-373000l0 -44400zm3057100 -200900l0 -272400c0,-174800 -40600,-301000 -121300,-380000 -81200,-78600 -210600,-118100 -388200,-118100 -161900,0 -269600,29200 -323300,87200 -53600,57900 -80100,192800 -80100,404400l0 285400c0,210600 26500,344900 80100,402800 53700,58000 161400,87200 323300,87200 177600,0 307000,-39500 388200,-118000 80700,-79100 121300,-205200 121300,-378500zm246900 -971900l0 2309800 -246900 0 0 -877700c-46500,92100 -109900,158700 -190600,199300 -80100,40600 -188900,61200 -326500,61200 -238200,0 -406600,-49300 -504600,-148400 -98600,-99100 -147800,-269100 -147800,-510000l0 -396900c0,-242100 49200,-412600 147800,-511700 98000,-99100 266400,-148400 504600,-148400 142400,0 256100,22800 340100,68300 84400,45400 146200,116900 186700,214400l0 -259900 237200 0zm1878400 0l0 1669800 -237700 0 0 -226800c-39000,85000 -103500,147800 -193300,188400 -89900,40600 -208500,61200 -355800,61200 -218200,0 -370900,-44400 -459100,-132700 -87800,-88200 -131600,-243100 -131600,-464000l0 -1095900 246900 0 0 1043400c0,173300 26000,287500 78000,342700 51400,54700 152600,82300 302600,82300 173300,0 300000,-39500 380100,-119100 79600,-79100 119700,-204700 119700,-377400l0 -971900 250200 0zm510600 -412600l0 -279400 246800 0 0 279400 -246800 0zm0 2082400l0 -1669800 246800 0 0 1669800 -246800 0zm697900 -497000l250100 0 0 37900c0,102800 32000,173800 95400,212800 63300,38400 190600,57900 382200,57900 214400,0 346600,-19500 396400,-59000 49800,-39000 74700,-114800 74700,-226900 0,-108800 -20600,-181900 -61200,-218200 -40600,-36800 -142400,-59000 -304800,-67700 -60700,-3200 -141900,-6500 -244200,-9700 -224200,-6000 -357400,-21700 -399600,-45500 -63400,-35200 -108900,-82900 -135400,-142900 -27000,-60100 -40600,-146800 -40600,-260000 0,-185100 47100,-310200 141300,-375700 93700,-65500 301100,-98600 621600,-98600 248500,0 416400,31400 504700,93700 88200,62300 132600,172200 132600,328700l-246900 0 0 -15700c0,-74200 -31900,-125100 -95800,-153300 -64500,-28100 -191700,-42200 -381800,-42200 -184600,0 -301600,16800 -352500,50900 -50900,33600 -76300,104500 -76300,212200 0,65600 4900,111000 14100,137600 9700,26500 26500,46600 50900,60100 49800,26500 159700,41700 330300,46000 43300,1100 76800,2200 100100,3300 139700,5400 249100,12400 328700,21600 79600,8700 135900,21100 170000,37400 74200,33500 126700,82300 158100,145600 30900,63900 46600,156000 46600,276700 0,122400 -15200,216100 -46000,279400 -30900,63300 -85600,119700 -165200,168400 -35700,23300 -94700,40100 -176000,49800 -81700,10300 -194900,15200 -340000,15200 -296200,0 -492200,-34100 -588000,-102400 -95900,-68700 -143500,-192700 -143500,-373000l0 -44400zm3047300 71500l0 -176000c0,-79600 -40600,-137600 -121300,-174400 -80600,-37300 -209500,-55700 -386000,-55700 -161400,0 -269700,20500 -323800,61100 -54700,40700 -81800,118600 -81800,234000 0,131500 28700,218700 86700,262600 57400,43800 172700,66000 345900,66000 155500,0 274000,-18900 356900,-56300 82300,-37400 123400,-91500 123400,-161300zm12500 249600c-37900,69800 -98600,120200 -181400,151600 -83400,31400 -198200,47100 -345400,47100 -261000,0 -436500,-37400 -525300,-112100 -88800,-74700 -133200,-213300 -133200,-416900 0,-117500 10300,-209600 30900,-276200 20600,-66600 54700,-120200 102300,-160200 40100,-34200 99100,-58000 177100,-72000 77900,-14700 189500,-21700 335700,-21700 151100,0 266900,12400 346500,37400 80200,24800 140300,66000 180300,124500l0 -288100c0,-136400 -26500,-224700 -79000,-265300 -53100,-40100 -185700,-60100 -398000,-60100 -154300,0 -257200,16200 -308100,48700 -50300,32000 -76900,92600 -79100,182000l-246800 0 0 -38500c0,-142900 46000,-244700 138600,-305400 92500,-61100 252300,-91500 478600,-91500 176500,0 310800,7600 402900,22200 92000,14700 160200,38500 204600,71500 48800,37900 82900,85000 102900,141300 20100,55800 30300,152200 30300,288600l0 1169000 -224700 0 -9700 -175900zm669800 -321100l250100 0 0 37900c0,102800 32000,173800 95300,212800 63400,38400 190600,57900 382300,57900 214400,0 346500,-19500 396300,-59000 49800,-39000 74800,-114800 74800,-226900 0,-108800 -20600,-181900 -61300,-218200 -40500,-36800 -142400,-59000 -304800,-67700 -60600,-3200 -141900,-6500 -244200,-9700 -224100,-6000 -357300,-21700 -399600,-45500 -63300,-35200 -108800,-82900 -135400,-142900 -27000,-60100 -40500,-146800 -40500,-260000 0,-185100 47100,-310200 141300,-375700 93600,-65500 301000,-98600 621600,-98600 248500,0 416300,31400 504600,93700 88300,62300 132700,172200 132700,328700l-246900 0 0 -15700c0,-74200 -32000,-125100 -95900,-153300 -64400,-28100 -191600,-42200 -381700,-42200 -184700,0 -301600,16800 -352500,50900 -50900,33600 -76400,104500 -76400,212200 0,65600 4900,111000 14100,137600 9800,26500 26600,46600 50900,60100 49800,26500 159700,41700 330300,46000 43300,1100 76900,2200 100200,3300 139700,5400 249100,12400 328700,21600 79600,8700 135900,21100 170000,37400 74100,33500 126700,82300 158100,145600 30800,63900 46500,156000 46500,276700 0,122400 -15100,216100 -46000,279400 -30800,63300 -85500,119700 -165100,168400 -35800,23300 -94800,40100 -176000,49800 -81700,10300 -194900,15200 -340000,15200 -296200,0 -492200,-34100 -588000,-102400 -95900,-68700 -143500,-192700 -143500,-373000l0 -44400zm4154600 -200900l0 -272400c0,-174800 -40600,-301000 -121300,-380000 -81200,-78600 -210700,-118100 -388300,-118100 -161800,0 -269600,29200 -323200,87200 -53600,57900 -80100,192800 -80100,404400l0 285400c0,210600 26500,344900 80100,402800 53600,58000 161400,87200 323200,87200 177600,0 307100,-39500 388300,-118000 80700,-79100 121300,-205200 121300,-378500zm9700 441300c-39500,97400 -101300,168400 -185200,212800 -83900,44400 -198100,66600 -341600,66600 -238300,0 -406700,-49300 -504700,-148400 -98500,-99100 -147800,-269100 -147800,-510000l0 -396900c0,-242100 49300,-412600 147800,-511700 98000,-99100 266400,-148400 504700,-148400 137500,0 246400,20600 326500,61200 80600,40600 144000,107200 190600,199300l0 -929700 246900 0 0 2361800 -237200 0 0 -256600zm942700 -740700l945400 0 0 -65000c0,-156500 -28100,-262600 -83900,-318900 -56300,-55800 -167300,-83900 -333000,-83900l-115900 0c-165100,0 -275100,28100 -330300,83900 -54700,56300 -82300,162400 -82300,318900l0 65000zm415800 1020100c-249600,0 -423900,-48700 -523500,-146200 -99100,-96900 -148900,-268000 -148900,-512800l0 -395800c0,-245800 49200,-416900 148300,-514400 98600,-97400 272400,-146200 520900,-146200l115900 0c249600,0 424500,48800 524100,146200 99600,97500 149500,268600 149500,514400l0 252300 -1202100 1700c-1100,16800 -1600,35700 -2200,55700 -500,20600 -1000,49300 -1000,86100 0,172700 27600,288100 82800,346500 54700,59100 165700,88300 333000,88300l115900 0c148900,0 252300,-21600 310800,-64400 57900,-42800 92000,-117500 101200,-224700l258300 0c-12400,181300 -70900,311800 -174900,392500 -104000,80700 -268000,120800 -492700,120800l-115400 0zm2358100 -22800l0 -2361800 263100 0 0 2361800 -263100 0zm805100 0l0 -1669800 237200 0 0 228500c40600,-86100 105000,-149500 193800,-190100 88800,-40600 205800,-61200 352000,-61200 218700,0 372000,44400 459700,132700 87700,88200 131500,243700 131500,465700l0 1094200 -246900 0 0 -1041700c0,-174400 -25400,-289200 -76900,-344400 -51400,-54700 -151000,-82300 -298800,-82300 -174900,0 -302200,40100 -383400,119700 -80700,80100 -121300,205700 -121300,378400l0 970300 -246900 0zm1689900 -1458700l0 -211100 233900 0c0,-12500 0,-27100 -500,-43900 -500,-16200 -1100,-39000 -1100,-68700 0,-212800 37400,-362300 111600,-449500 74700,-86600 203500,-129900 387600,-129900 47700,0 94200,1100 139200,3200 45500,2200 90900,5400 136400,9200l0 224700c-13500,-1000 -32500,-2100 -56800,-3200 -73100,-2100 -123500,-3200 -151100,-3200 -127800,0 -212800,19400 -255000,57900 -42200,39000 -63400,135300 -63400,290200l0 113200 526300 0 0 211100 -526300 0 0 1458700 -246900 0 0 -1458700 -233900 0zm2407300 767300l0 -285400c0,-210600 -26500,-344300 -80100,-401700 -53600,-58000 -165700,-86600 -336800,-86600l-115800 0c-170600,0 -281600,28600 -334100,85500 -52500,57400 -78500,191700 -78500,402800l0 285400c0,212200 26500,347100 79000,404500 53100,56800 164100,85500 333600,85500l115800 0c170000,0 282100,-29200 336300,-87200 53600,-57900 80600,-192200 80600,-402800zm-529500 714200c-249600,0 -424000,-48700 -523600,-146200 -99100,-96900 -148900,-268000 -148900,-512200l0 -396900c0,-245300 49300,-416400 148400,-513900 98500,-97400 272300,-146200 520900,-146200l115800 0c249600,0 424500,48800 524200,146200 99600,97500 149400,268600 149400,513900l0 396900c0,245300 -49300,416400 -148300,513300 -99100,96900 -273500,145100 -522600,145100l-115300 0zm1228000 -22800l0 -1669800 240400 0 0 228500c35200,-87200 89400,-150500 163500,-190600 74200,-40600 172200,-60700 295100,-60700 182000,0 309800,43900 382900,131600 73600,88300 110400,243700 110400,466800l0 13000 -250100 0 0 -49300c0,-133200 -21200,-223100 -63400,-269100 -42200,-46000 -121800,-68800 -239300,-68800 -137000,0 -236100,39000 -297300,116400 -61200,78000 -92000,205200 -92000,381700l0 970300 -250200 0zm1558900 0l0 -1669800 240400 0 0 228500c35200,-86100 93600,-149500 175400,-190100 82300,-40600 190600,-61200 324900,-61200 141900,0 252300,21700 332400,65000 79600,43900 139200,114300 178700,211700 48200,-97400 112700,-167800 192200,-211700 80200,-43300 184700,-65000 313500,-65000 218800,0 370400,43300 454900,130000 84400,87100 126700,243100 126700,468400l0 1094200 -246900 0 0 -1016300c0,-186300 -23800,-308100 -72000,-365500 -48200,-57900 -141900,-86600 -281600,-86600 -154300,0 -266400,39500 -336800,118100 -70400,79000 -105600,205200 -105600,380000l0 970300 -240400 0 0 -1130500c0,-132200 -23800,-221500 -72000,-268000 -48200,-46600 -140200,-69900 -275600,-69900 -158100,0 -275100,40100 -349200,120800 -74800,80100 -112100,205700 -112100,377300l0 970300 -246900 0zm3927100 -425500l0 -176000c0,-79600 -40500,-137600 -121200,-174400 -80700,-37300 -209600,-55700 -386100,-55700 -161400,0 -269600,20500 -323800,61100 -54700,40700 -81800,118600 -81800,234000 0,131500 28800,218700 86700,262600 57400,43800 172700,66000 346000,66000 155400,0 274000,-18900 356800,-56300 82300,-37400 123400,-91500 123400,-161300zm12500 249600c-37900,69800 -98500,120200 -181400,151600 -83400,31400 -198200,47100 -345400,47100 -261000,0 -436400,-37400 -525300,-112100 -88700,-74700 -133100,-213300 -133100,-416900 0,-117500 10200,-209600 30800,-276200 20600,-66600 54700,-120200 102300,-160200 40100,-34200 99100,-58000 177100,-72000 78000,-14700 189500,-21700 335700,-21700 151100,0 266900,12400 346500,37400 80200,24800 140300,66000 180300,124500l0 -288100c0,-136400 -26500,-224700 -79000,-265300 -53100,-40100 -185700,-60100 -398000,-60100 -154300,0 -257200,16200 -308100,48700 -50300,32000 -76900,92600 -79000,182000l-246900 0 0 -38500c0,-142900 46000,-244700 138600,-305400 92600,-61100 252300,-91500 478600,-91500 176600,0 310900,7600 402900,22200 92000,14700 160300,38500 204700,71500 48700,37900 82800,85000 102800,141300 20100,55800 30400,152200 30400,288600l0 1169000 -224700 0 -9800 -175900zm1335800 198700c-249700,0 -424000,-48700 -523600,-146200 -99100,-97500 -148900,-268000 -148900,-512800l0 -395800c0,-245300 49300,-416900 148400,-514400 98500,-97400 272300,-146200 520800,-146200l115900 0c236100,0 406100,45500 510600,136000 104500,90400 158600,238700 163000,445600l-256700 1600c-5400,-135400 -35700,-228500 -92000,-279400 -55800,-50900 -164600,-76300 -324900,-76300l-115900 0c-170500,0 -281500,28600 -334000,85500 -52600,57400 -78600,191700 -78600,402800l0 285400c0,212200 26600,347100 79100,404500 53000,56800 164100,85500 333500,85500l115900 0c162500,0 272900,-27600 330300,-83400 57900,-55200 86600,-157000 86600,-303700l0 -28700 256700 0 0 31900c0,217700 -51500,373600 -154900,467300 -103400,93700 -275100,140800 -516000,140800l-115300 0zm74700 -22800l0 182000 101800 0c100100,0 165100,14100 194900,42700 29800,28700 44400,101300 44400,217700 0,127800 -14000,207400 -42200,238800 -27600,30900 -92600,46600 -193800,46600l-420200 0 0 -139700 338900 0c56300,0 90400,-7600 103400,-22200 12500,-14600 19000,-58500 19000,-131100 0,-64400 -5400,-103900 -16800,-119600 -10800,-15200 -47100,-22800 -108800,-22800l-124600 0 0 -292400 104000 0zm2290400 -691400l0 -285400c0,-210600 -26600,-344300 -80200,-401700 -53600,-58000 -165700,-86600 -336800,-86600l-115800 0c-170600,0 -281600,28600 -334100,85500 -52500,57400 -78500,191700 -78500,402800l0 285400c0,212200 26500,347100 79000,404500 53100,56800 164100,85500 333600,85500l115800 0c170000,0 282100,-29200 336300,-87200 53600,-57900 80700,-192200 80700,-402800zm-529600 714200c-249600,0 -424000,-48700 -523600,-146200 -99100,-96900 -148900,-268000 -148900,-512200l0 -396900c0,-245300 49300,-416400 148400,-513900 98500,-97400 272300,-146200 520900,-146200l115800 0c249600,0 424500,48800 524200,146200 99600,97500 149400,268600 149400,513900l0 396900c0,245300 -49300,416400 -148300,513300 -99100,96900 -273500,145100 -522500,145100l-115400 0zm516500 -2306600c-27600,95300 -66500,166700 -117400,214400 -50400,47600 -112100,71400 -185200,71400 -14600,0 -30900,-1000 -48200,-3800 -17900,-2600 -36300,-7000 -56300,-11900l-150600 -44900c-19400,-6000 -35100,-10800 -47600,-13500 -13000,-2700 -25400,-3800 -37900,-3800 -29800,0 -57400,9700 -82800,29800 -25500,20000 -46600,48100 -63400,83900l-126700 0c23300,-92000 61200,-163000 114300,-212300 52500,-49200 117400,-73600 194900,-73600 16800,0 32000,1100 46000,3300 13600,2100 26500,5400 37900,9700l153800 49300c12400,3800 27100,7600 42800,10800 15700,3200 30800,4900 44400,4900 35700,0 66000,-9200 90900,-27600 24900,-18400 45500,-47100 61200,-86100l129900 0zm903200 1286500l945400 0 0 -65000c0,-156500 -28100,-262600 -83900,-318900 -56400,-55800 -167400,-83900 -333000,-83900l-115900 0c-165200,0 -275100,28100 -330300,83900 -54700,56300 -82300,162400 -82300,318900l0 65000zm415800 1020100c-249600,0 -423900,-48700 -523500,-146200 -99100,-96900 -148900,-268000 -148900,-512800l0 -395800c0,-245800 49200,-416900 148300,-514400 98500,-97400 272400,-146200 520900,-146200l115900 0c249600,0 424500,48800 524100,146200 99600,97500 149500,268600 149500,514400l0 252300 -1202100 1700c-1100,16800 -1600,35700 -2200,55700 -500,20600 -1000,49300 -1000,86100 0,172700 27600,288100 82800,346500 54700,59100 165700,88300 333000,88300l115900 0c148900,0 252300,-21600 310800,-64400 57900,-42800 92000,-117500 101200,-224700l258300 0c-12400,181300 -70900,311800 -174900,392500 -104000,80700 -268000,120800 -492700,120800l-115400 0zm1169600 -519800l250100 0 0 37900c0,102800 32000,173800 95300,212800 63400,38400 190600,57900 382300,57900 214400,0 346500,-19500 396300,-59000 49900,-39000 74800,-114800 74800,-226900 0,-108800 -20600,-181900 -61200,-218200 -40600,-36800 -142400,-59000 -304900,-67700 -60600,-3200 -141800,-6500 -244100,-9700 -224200,-6000 -357400,-21700 -399600,-45500 -63400,-35200 -108900,-82900 -135400,-142900 -27100,-60100 -40600,-146800 -40600,-260000 0,-185100 47100,-310200 141300,-375700 93700,-65500 301000,-98600 621600,-98600 248500,0 416400,31400 504700,93700 88200,62300 132600,172200 132600,328700l-246900 0 0 -15700c0,-74200 -31900,-125100 -95800,-153300 -64500,-28100 -191700,-42200 -381800,-42200 -184600,0 -301600,16800 -352500,50900 -50900,33600 -76300,104500 -76300,212200 0,65600 4900,111000 14000,137600 9800,26500 26600,46600 51000,60100 49800,26500 159700,41700 330300,46000 43300,1100 76800,2200 100100,3300 139700,5400 249100,12400 328700,21600 79600,8700 135900,21100 170000,37400 74200,33500 126700,82300 158100,145600 30900,63900 46600,156000 46600,276700 0,122400 -15200,216100 -46100,279400 -30800,63300 -85500,119700 -165100,168400 -35700,23300 -94800,40100 -176000,49800 -81700,10300 -194900,15200 -340000,15200 -296200,0 -492200,-34100 -588000,-102400 -95900,-68700 -143500,-192700 -143500,-373000l0 -44400zm3082500 497000l0 -2361800 1656900 0 0 250100 -1397000 0 0 773300 1357400 0 0 240400 -1357400 0 0 851100 1397000 0 0 246900 -1656900 0zm2083000 0l0 -1669800 240400 0 0 228500c35200,-86100 93700,-149500 175400,-190100 82300,-40600 190600,-61200 324900,-61200 141900,0 252300,21700 332500,65000 79600,43900 139100,114300 178700,211700 48200,-97400 112600,-167800 192200,-211700 80100,-43300 184600,-65000 313400,-65000 218800,0 370400,43300 454900,130000 84400,87100 126700,243100 126700,468400l0 1094200 -246900 0 0 -1016300c0,-186300 -23800,-308100 -72000,-365500 -48200,-57900 -141900,-86600 -281600,-86600 -154300,0 -266400,39500 -336700,118100 -70400,79000 -105600,205200 -105600,380000l0 970300 -240500 0 0 -1130500c0,-132200 -23800,-221500 -72000,-268000 -48100,-46600 -140200,-69900 -275600,-69900 -158100,0 -275000,40100 -349200,120800 -74700,80100 -112100,205700 -112100,377300l0 970300 -246900 0zm3085700 -697900c0,173300 40600,299400 121300,378500 80700,78500 210600,118000 389300,118000 161400,0 269100,-29200 322200,-87200 53600,-57900 80100,-192200 80100,-402800l0 -285400c0,-211600 -26500,-346500 -80100,-404400 -53100,-58000 -160800,-87200 -322200,-87200 -178700,0 -308600,39500 -389300,118100 -80700,79000 -121300,205200 -121300,380000l0 272400zm-246900 -971900l237200 0 0 259900c40600,-97500 102900,-169000 187900,-214400 85000,-45500 199200,-68300 341600,-68300 237700,0 405600,49300 503000,147900 98100,98000 146800,269100 146800,512200l0 396900c0,242000 -48700,412600 -146800,510600 -97400,98500 -265300,147800 -503000,147800 -137500,0 -246300,-20600 -327000,-61200 -81200,-40600 -145100,-107200 -192800,-199300l0 877700 -246900 0 0 -2309800zm1858900 1669800l0 -1669800 240400 0 0 228500c35200,-87200 89300,-150500 163500,-190600 74200,-40600 172200,-60700 295100,-60700 181900,0 309700,43900 382800,131600 73600,88300 110400,243700 110400,466800l0 13000 -250100 0 0 -49300c0,-133200 -21100,-223100 -63300,-269100 -42300,-46000 -121900,-68800 -239400,-68800 -136900,0 -236000,39000 -297200,116400 -61200,78000 -92100,205200 -92100,381700l0 970300 -250100 0zm1711500 -997300l945400 0 0 -65000c0,-156500 -28100,-262600 -83900,-318900 -56300,-55800 -167400,-83900 -333000,-83900l-115900 0c-165200,0 -275100,28100 -330300,83900 -54700,56300 -82300,162400 -82300,318900l0 65000zm415800 1020100c-249600,0 -423900,-48700 -523500,-146200 -99100,-96900 -148900,-268000 -148900,-512800l0 -395800c0,-245800 49200,-416900 148300,-514400 98600,-97400 272400,-146200 520900,-146200l115900 0c249600,0 424500,48800 524100,146200 99600,97500 149500,268600 149500,514400l0 252300 -1202100 1700c-1100,16800 -1600,35700 -2200,55700 -500,20600 -1000,49300 -1000,86100 0,172700 27600,288100 82800,346500 54700,59100 165700,88300 333000,88300l115900 0c148900,0 252300,-21600 310800,-64400 57900,-42800 92000,-117500 101200,-224700l258300 0c-12400,181300 -70900,311800 -174900,392500 -104000,80700 -268000,120800 -492700,120800l-115400 0zm1169600 -519800l250100 0 0 37900c0,102800 32000,173800 95300,212800 63400,38400 190600,57900 382300,57900 214400,0 346500,-19500 396300,-59000 49900,-39000 74800,-114800 74800,-226900 0,-108800 -20600,-181900 -61200,-218200 -40600,-36800 -142400,-59000 -304800,-67700 -60700,-3200 -141900,-6500 -244200,-9700 -224200,-6000 -357400,-21700 -399600,-45500 -63400,-35200 -108900,-82900 -135400,-142900 -27100,-60100 -40600,-146800 -40600,-260000 0,-185100 47100,-310200 141300,-375700 93700,-65500 301000,-98600 621600,-98600 248500,0 416400,31400 504700,93700 88200,62300 132600,172200 132600,328700l-246900 0 0 -15700c0,-74200 -31900,-125100 -95800,-153300 -64500,-28100 -191700,-42200 -381800,-42200 -184600,0 -301600,16800 -352500,50900 -50900,33600 -76300,104500 -76300,212200 0,65600 4900,111000 14000,137600 9800,26500 26600,46600 51000,60100 49800,26500 159700,41700 330300,46000 43300,1100 76800,2200 100100,3300 139700,5400 249100,12400 328700,21600 79600,8700 135900,21100 170000,37400 74200,33500 126700,82300 158100,145600 30900,63900 46600,156000 46600,276700 0,122400 -15200,216100 -46100,279400 -30800,63300 -85500,119700 -165100,168400 -35700,23300 -94800,40100 -176000,49800 -81700,10300 -194900,15200 -340000,15200 -296200,0 -492200,-34100 -588000,-102400 -95900,-68700 -143500,-192700 -143500,-373000l0 -44400z"/>
   <path class="fil0" d="M55240900 40968800l0 -176000c0,-79600 -40600,-137600 -121300,-174400 -80600,-37300 -209500,-55700 -386000,-55700 -161400,0 -269700,20500 -323800,61100 -54700,40700 -81800,118600 -81800,234000 0,131500 28700,218700 86700,262600 57300,43800 172700,66000 345900,66000 155400,0 274000,-18900 356900,-56300 82200,-37400 123400,-91500 123400,-161300zm12500 249600c-38000,69800 -98600,120200 -181400,151600 -83400,31400 -198200,47100 -345500,47100 -261000,0 -436400,-37400 -525200,-112100 -88800,-74700 -133200,-213300 -133200,-416900 0,-117500 10300,-209600 30900,-276200 20500,-66600 54700,-120200 102300,-160200 40100,-34200 99100,-58000 177100,-72000 77900,-14700 189500,-21700 335700,-21700 151000,0 266900,12400 346500,37400 80100,24800 140200,66000 180300,124500l0 -288100c0,-136400 -26500,-224700 -79000,-265300 -53100,-40100 -185800,-60100 -398000,-60100 -154300,0 -257200,16200 -308100,48700 -50400,32000 -76900,92600 -79100,182000l-246900 0 0 -38500c0,-142900 46100,-244700 138700,-305400 92500,-61100 252300,-91500 478600,-91500 176500,0 310800,7600 402900,22200 92000,14700 160200,38500 204600,71500 48800,37900 82900,85000 102900,141300 20000,55800 30300,152200 30300,288600l0 1169000 -224700 0 -9700 -175900zm728200 175900l0 -1669800 240400 0 0 228500c35200,-87200 89400,-150500 163500,-190600 74200,-40600 172200,-60700 295100,-60700 182000,0 309700,43900 382900,131600 73600,88300 110400,243700 110400,466800l0 13000 -250200 0 0 -49300c0,-133200 -21100,-223100 -63300,-269100 -42200,-46000 -121800,-68800 -239300,-68800 -137000,0 -236100,39000 -297300,116400 -61200,78000 -92000,205200 -92000,381700l0 970300 -250200 0zm1523100 -2082400l0 -279400 246900 0 0 279400 -246900 0zm0 2082400l0 -1669800 246900 0 0 1669800 -246900 0zm1851300 -425500l0 -176000c0,-79600 -40600,-137600 -121300,-174400 -80700,-37300 -209500,-55700 -386100,-55700 -161300,0 -269600,20500 -323800,61100 -54600,40700 -81700,118600 -81700,234000 0,131500 28700,218700 86600,262600 57400,43800 172700,66000 346000,66000 155400,0 274000,-18900 356800,-56300 82300,-37400 123500,-91500 123500,-161300zm12500 249600c-38000,69800 -98600,120200 -181400,151600 -83400,31400 -198200,47100 -345500,47100 -261000,0 -436400,-37400 -525200,-112100 -88800,-74700 -133200,-213300 -133200,-416900 0,-117500 10300,-209600 30900,-276200 20500,-66600 54600,-120200 102300,-160200 40100,-34200 99100,-58000 177000,-72000 78000,-14700 189500,-21700 335700,-21700 151100,0 267000,12400 346600,37400 80100,24800 140200,66000 180300,124500l0 -288100c0,-136400 -26500,-224700 -79100,-265300 -53000,-40100 -185700,-60100 -397900,-60100 -154300,0 -257200,16200 -308100,48700 -50400,32000 -76900,92600 -79100,182000l-246900 0 0 -38500c0,-142900 46000,-244700 138600,-305400 92600,-61100 252300,-91500 478700,-91500 176500,0 310800,7600 402800,22200 92100,14700 160300,38500 204700,71500 48700,37900 82800,85000 102900,141300 20000,55800 30300,152200 30300,288600l0 1169000 -224700 0 -9700 -175900zm731500 -1906500l0 -279400 246800 0 0 279400 -246800 0zm0 2082400l0 -1669800 246800 0 0 1669800 -246800 0zm697900 -497000l250100 0 0 37900c0,102800 32000,173800 95300,212800 63400,38400 190600,57900 382300,57900 214400,0 346600,-19500 396400,-59000 49800,-39000 74700,-114800 74700,-226900 0,-108800 -20600,-181900 -61200,-218200 -40600,-36800 -142400,-59000 -304800,-67700 -60700,-3200 -141900,-6500 -244200,-9700 -224200,-6000 -357400,-21700 -399600,-45500 -63400,-35200 -108900,-82900 -135400,-142900 -27100,-60100 -40600,-146800 -40600,-260000 0,-185100 47100,-310200 141300,-375700 93700,-65500 301000,-98600 621600,-98600 248500,0 416400,31400 504700,93700 88200,62300 132600,172200 132600,328700l-246900 0 0 -15700c0,-74200 -31900,-125100 -95800,-153300 -64500,-28100 -191700,-42200 -381800,-42200 -184600,0 -301600,16800 -352500,50900 -50900,33600 -76300,104500 -76300,212200 0,65600 4900,111000 14100,137600 9700,26500 26500,46600 50900,60100 49800,26500 159700,41700 330300,46000 43300,1100 76800,2200 100100,3300 139700,5400 249100,12400 328700,21600 79600,8700 135900,21100 170000,37400 74200,33500 126700,82300 158100,145600 30900,63900 46600,156000 46600,276700 0,122400 -15200,216100 -46000,279400 -30900,63300 -85600,119700 -165200,168400 -35700,23300 -94700,40100 -176000,49800 -81700,10300 -194900,15200 -340000,15200 -296200,0 -492200,-34100 -588000,-102400 -95900,-68700 -143500,-192700 -143500,-373000l0 -44400z"/>
  </g>
  <g id="_1905325582016">
   <path class="fil1" d="M0 36352500l0 -9128100 4643600 0c1291100,0 2195100,270000 2714100,809900 519000,537800 778500,1481500 778500,2831300l0 1845700c0,1349700 -259500,2293500 -778500,2831300 -519000,539900 -1423000,809900 -2714100,809900l-4643600 0zm2448400 -2034000l1820600 0c560800,0 929100,-100500 1104900,-301400 175800,-198800 263700,-690600 263700,-1471100l0 -1502500c0,-780600 -87900,-1274500 -265800,-1477400 -177900,-205100 -546200,-307700 -1102800,-307700l-1820600 0 0 5060100zm9835400 -1418900l1998500 0 -906100 -3781400 -159100 0 -933300 3781400zm-3488400 3452900l2624100 -9128100 3764700 0 2563500 9128100 -2624200 0 -410200 -1594600 -2877300 0 -416500 1594600 -2624100 0zm10107400 0l0 -9128100 4643600 0c1291100,0 2195100,270000 2714100,809900 519000,537800 778500,1481500 778500,2831300l0 1845700c0,1349700 -259500,2293500 -778500,2831300 -519000,539900 -1423000,809900 -2714100,809900l-4643600 0zm2448400 -2034000l1820600 0c560800,0 929100,-100500 1104900,-301400 175800,-198800 263600,-690600 263600,-1471100l0 -1502500c0,-780600 -87800,-1274500 -265700,-1477400 -177900,-205100 -546200,-307700 -1102800,-307700l-1820600 0 0 5060100zm9467100 -3275000l0 1502500c0,780500 87800,1272300 263600,1471100 175800,200900 544100,301400 1105000,301400l454100 0c558700,0 929100,-102600 1109100,-307700 179900,-202900 269900,-692600 269900,-1464800l0 -1502500c0,-776400 -90000,-1268200 -269900,-1475300 -180000,-207200 -550400,-309800 -1109100,-309800l-454100 0c-556700,0 -922900,102600 -1100800,307700 -177800,202900 -267800,696800 -267800,1477400zm-2498700 -203000c0,-1385400 259600,-2354300 778500,-2904600 519000,-550400 1423000,-824500 2714100,-824500l1201200 0c1295400,0 2203600,276200 2724600,828700 521100,552400 780600,1519200 780600,2900400l0 1895900c0,1381100 -259500,2348000 -780600,2900400 -521000,552500 -1429200,828700 -2724600,828700l-1201200 0c-1291100,0 -2195100,-274200 -2714100,-824500 -518900,-550400 -778500,-1519300 -778500,-2904600l0 -1895900zm9364600 2686900l2347900 0 0 92100c0,330600 87900,560800 263700,690600 175800,131800 485500,196700 931200,196700l613200 0c372500,0 631900,-50300 780500,-150700 148600,-98400 223900,-276200 223900,-529400l0 -397600c0,-215600 -58500,-372500 -177900,-464600 -117100,-94200 -385000,-167400 -801400,-215500l-1985900 -215600c-738700,-81600 -1280700,-311800 -1621800,-694700 -341100,-383000 -510600,-950100 -510600,-1701300l0 -565100c0,-424700 66900,-803500 202900,-1138400 134000,-332700 330700,-606800 588100,-818200 219700,-184100 487600,-316000 801500,-391300 313800,-75300 784700,-113000 1408300,-113000l1466900 0c912400,0 1609300,184200 2090600,552500 483400,368200 724000,899800 724000,1596600l0 625700 -2347900 0 0 -98300c0,-274200 -64900,-464600 -192500,-571300 -129700,-106700 -362000,-159000 -696900,-159000l-565000 0c-389200,0 -655000,46000 -801500,138100 -144400,92100 -217600,251100 -217600,475000l0 380900c0,334800 328600,539900 987700,613100l0 0 1808100 203000c782600,90000 1364400,316000 1749400,682200 385000,366200 577600,881000 577600,1542300l0 876800c0,755400 -234400,1360200 -705200,1814300 -470900,454100 -1102900,682200 -1895900,682200l-1994300 0c-1065200,0 -1841600,-184200 -2325000,-552500 -483400,-368300 -726100,-954200 -726100,-1755700l0 -629900z"/>
   <path class="fil2" d="M46785100 36352500l0 -9128100 4283600 0c1203200,0 2065400,236500 2584400,707300 519000,472900 778500,1249300 778500,2333300l0 600600c0,1086100 -259500,1866600 -780600,2339600 -521100,475000 -1383200,711500 -2582300,711500l-1835300 0 0 2435800 -2448300 0zm2448300 -4469900l1705500 0c401800,0 667600,-71200 797300,-215500 131900,-142300 196700,-431100 196700,-864300l0 -527300c0,-362000 -83700,-621600 -249000,-774300 -165300,-152800 -445700,-230200 -843300,-230200l-1607200 0 0 2611600zm12545400 1669900c0,981500 -213400,1711800 -638200,2193100 -424800,479200 -1075600,719900 -1952500,719900l-1127900 0c-994000,0 -1701300,-211400 -2126100,-634100 -422700,-424800 -634100,-1123700 -634100,-2101000l0 -1295300 2385600 0 0 1042100c0,328500 43900,550300 129800,665400 85800,117200 238500,175900 458200,175900l443700 0c219700,0 372500,-58700 458300,-175900 85800,-115100 129700,-336900 129700,-665400l0 -6252800 2473500 0 0 6328100z"/>
  </g>
  <g id="_1905325584320">
   <polygon class="fil3" points="25707100,0 32530200,0 32530200,6823100 25707100,6823100 "/>
   <polygon class="fil4" points="36995300,4643900 43567500,4643900 43567500,11216100 36995300,11216100 "/>
   <polygon class="fil4" points="29946400,7952900 35164000,7952900 35164000,13170600 29946400,13170600 "/>
   <polygon class="fil5" points="33433200,1182200 35991800,1182200 35991800,3740900 33433200,3740900 "/>
   <polygon class="fil6" points="36593900,12771400 41259700,12771400 41259700,17437200 36593900,17437200 "/>
   <polygon class="fil4" points="31426400,18039200 35640700,18039200 35640700,22253500 31426400,22253500 "/>
   <polygon class="fil7" points="22295500,7952900 28115200,7952900 28115200,13772600 22295500,13772600 "/>
   <polygon class="fil5" points="29168700,20873200 32806600,20873200 32806600,24511100 29168700,24511100 "/>
   <polygon class="fil6" points="29118600,14300400 31727400,14300400 31727400,16909300 29118600,16909300 "/>
   <polygon class="fil4" points="21191800,3511900 24503000,3511900 24503000,6823100 21191800,6823100 "/>
   <polygon class="fil4" points="18432500,6823100 21191800,6823100 21191800,9582400 18432500,9582400 "/>
   <polygon class="fil6" points="33684100,4794400 35741000,4794400 35741000,6851300 33684100,6851300 "/>
   <polygon class="fil5" points="33232500,14676700 35088800,14676700 35088800,16533000 33232500,16533000 "/>
  </g>
 </g>
</svg>
