<?xml version="1.0" encoding="UTF-8"?>
<!DOCTYPE svg PUBLIC "-//W3C//DTD SVG 1.1//EN" "http://www.w3.org/Graphics/SVG/1.1/DTD/svg11.dtd">
<!-- Creator: CorelDRAW 2021 (64-Bit) -->
<svg xmlns="http://www.w3.org/2000/svg" xml:space="preserve" width="162.904mm" height="24.6657mm" version="1.1" style="shape-rendering:geometricPrecision; text-rendering:geometricPrecision; image-rendering:optimizeQuality; fill-rule:evenodd; clip-rule:evenodd"
viewBox="0 0 22378965 3388459"
 xmlns:xlink="http://www.w3.org/1999/xlink"
 xmlns:xodm="http://www.corel.com/coreldraw/odm/2003">
 <defs>
  <style type="text/css">
   <![CDATA[
    .fil0 {fill:#23465D;fill-rule:nonzero}
    .fil1 {fill:#679A17;fill-rule:nonzero}
   ]]>
  </style>
 </defs>
 <g id="Layer_x0020_1">
  <metadata id="CorelCorpID_0Corel-Layer"/>
  <path class="fil0" d="M0 3347521l0 -3306583 1682106 0c467708,0 795183,97784 983182,293365 187998,194812 281990,536684 281990,1025631l0 668592c0,488933 -93992,830819 -281990,1025631 -187998,195581 -515473,293365 -983182,293365l-1682106 0zm886909 -736813l659498 0c203164,0 336583,-36391 400257,-109158 63673,-72026 95503,-250160 95503,-532906l0 -544281c0,-282746 -31830,-461650 -96273,-535173 -64429,-74293 -197848,-111439 -399487,-111439l-659498 0 0 1832958z"/>
  <path id="_1" class="fil0" d="M4449711 2096746l723941 0 -328231 -1369783 -57615 0 -338094 1369783zm-1263647 1250775l950582 -3306583 1363725 0 928602 3306583 -950596 0 -148571 -577636 -1042308 0 -150852 577636 -950582 0z"/>
  <path id="_2" class="fil0" d="M6847405 3347521l0 -3306583 1682106 0c467708,0 795183,97784 983182,293365 187998,194812 281990,536684 281990,1025631l0 668592c0,488933 -93992,830819 -281990,1025631 -187998,195581 -515473,293365 -983182,293365l-1682106 0zm886909 -736813l659498 0c203164,0 336583,-36391 400257,-109158 63673,-72026 95503,-250160 95503,-532906l0 -544281c0,-282746 -31830,-461650 -96273,-535173 -64429,-74293 -197848,-111439 -399487,-111439l-659498 0 0 1832958z"/>
  <path id="_3" class="fil0" d="M11163711 1424362l0 544281c0,282746 31830,460881 95503,532906 63687,72768 197092,109158 400257,109158l164493 0c202395,0 336570,-37146 401768,-111439 65185,-73523 97784,-250916 97784,-530626l0 -544281c0,-281235 -32599,-459369 -97784,-534418 -65198,-75048 -199373,-112194 -401768,-112194l-164493 0c-201640,0 -334303,37146 -398732,111439 -64429,73523 -97028,252427 -97028,535173zm-905111 -73523c0,-501832 94006,-852812 281990,-1052171 187998,-199359 515473,-298668 983182,-298668l435123 0c469233,0 798219,100064 986973,300179 188754,200128 282746,550339 282746,1050660l0 686781c0,500307 -93992,850532 -282746,1050647 -188754,200128 -517740,300193 -986973,300193l-435123 0c-467708,0 -795183,-99309 -983182,-298668 -187984,-199373 -281990,-550339 -281990,-1052171l0 -686781z"/>
  <path id="_4" class="fil0" d="M13650836 2324157l850532 0 0 33355c0,119778 31844,203164 95517,250160 63673,47752 175868,71257 337325,71257l222108 0c134930,0 228922,-18202 282746,-54579 53824,-35635 81120,-100064 81120,-191790l0 -144024c0,-78084 -21224,-134930 -64443,-168285 -42449,-34110 -139477,-60651 -290329,-78084l-719380 -78070c-267593,-29563 -463930,-112950 -587486,-251672 -123555,-138722 -184962,-344153 -184962,-616293l0 -204676c0,-153874 24260,-291085 73523,-412373 48521,-120533 119778,-219828 213014,-296401 79595,-66696 176623,-114461 290329,-141744 113706,-27296 284271,-40938 510171,-40938l531382 0c330511,0 582939,66709 757295,200128 175099,133405 262277,325950 262277,578378l0 226656 -850518 0 0 -35621c0,-99309 -23505,-168285 -69745,-206956 -46996,-38657 -131139,-57601 -252427,-57601l-204676 0c-140988,0 -237261,16677 -290329,50032 -52313,33355 -78840,90956 -78840,172076l0 137966c0,121275 119022,195568 357794,222095l0 0 654951 73537c283515,32599 494249,114461 633726,247124 139477,132650 209223,319137 209223,558678l0 317612c0,273665 -84898,492738 -255463,657231 -170551,164493 -399487,247124 -686781,247124l-722416 0c-385846,0 -667081,-66709 -842193,-200128 -175112,-133419 -263046,-345664 -263046,-635993l0 -228180z"/>
  <path id="_5" class="fil1" d="M16947570 3347521l0 -3306583 1551723 0c435864,0 748187,85654 936185,256219 187984,171307 281990,452542 281990,845216l0 217561c0,393416 -94006,676175 -282760,847496 -188754,172063 -501063,257730 -935416,257730l-664814 0 0 882362 -886909 0zm886909 -1619188l617804 0c145549,0 241822,-25772 288818,-78070 47765,-51543 71257,-156155 71257,-313078l0 -191020c0,-131139 -30319,-225144 -90201,-280479 -59896,-55335 -161471,-83387 -305495,-83387l-582183 0 0 946035z"/>
  <path id="_6" class="fil1" d="M22378965 2333251c0,355527 -77329,620085 -231203,794442 -153888,173587 -389638,260766 -707263,260766l-408582 0c-360075,0 -616293,-76559 -770181,-229692 -153119,-153888 -229678,-407071 -229678,-761073l0 -469233 864173 0 0 377507c0,119008 15908,199359 46996,241053 31074,42449 86409,63687 166004,63687l160702 0c79595,0 134944,-21238 166018,-63687 31074,-41693 46996,-122044 46996,-241053l0 -2265031 896017 0 0 2292314z"/>
 </g>
</svg>
