<?xml version="1.0" encoding="UTF-8"?>
<!DOCTYPE svg PUBLIC "-//W3C//DTD SVG 1.1//EN" "http://www.w3.org/Graphics/SVG/1.1/DTD/svg11.dtd">
<!-- Creator: CorelDRAW 2021 (64-Bit) -->
<svg xmlns="http://www.w3.org/2000/svg" xml:space="preserve" width="210.601mm" height="41.8238mm" version="1.1" style="shape-rendering:geometricPrecision; text-rendering:geometricPrecision; image-rendering:optimizeQuality; fill-rule:evenodd; clip-rule:evenodd"
viewBox="0 0 20727788 4116383"
 xmlns:xlink="http://www.w3.org/1999/xlink"
 xmlns:xodm="http://www.corel.com/coreldraw/odm/2003">
 <defs>
  <style type="text/css">
   <![CDATA[
    .fil6 {fill:#209EBB}
    .fil4 {fill:#209EBB}
    .fil3 {fill:#23465D}
    .fil2 {fill:#679A17}
    .fil5 {fill:#679A17}
    .fil0 {fill:#23465D;fill-rule:nonzero}
    .fil1 {fill:#679A17;fill-rule:nonzero}
   ]]>
  </style>
 </defs>
 <g id="Layer_x0020_1">
  <metadata id="CorelCorpID_0Corel-Layer"/>
  <path class="fil0" d="M4694465 3138511l0 -2368989 1205138 0c335088,0 569706,70057 704397,210180 134691,139572 202031,384505 202031,734809l0 479010c0,350294 -67340,595237 -202031,734809 -134691,140123 -369309,210180 -704397,210180l-1205138 0zm635422 -527887l472495 0c145556,0 241144,-26072 286762,-78206 45619,-51603 68423,-179227 68423,-381799l0 -389948c0,-202572 -22804,-330747 -68974,-383423 -46160,-53227 -141747,-79840 -286211,-79840l-472495 0 0 1313216z"/>
  <path id="_1" class="fil0" d="M7882443 2242398l518664 0 -235160 -981376 -41278 0 -242226 981376zm-905335 896113l681041 -2368989 977036 0 665294 2368989 -681051 0 -106443 -413845 -746757 0 -108077 413845 -681041 0z"/>
  <path id="_2" class="fil0" d="M9600262 3138511l0 -2368989 1205138 0c335088,0 569706,70057 704397,210180 134691,139572 202031,384505 202031,734809l0 479010c0,350294 -67340,595237 -202031,734809 -134691,140123 -369309,210180 -704397,210180l-1205138 0zm635422 -527887l472495 0c145556,0 241144,-26072 286762,-78206 45619,-51603 68423,-179227 68423,-381799l0 -389948c0,-202572 -22804,-330747 -68974,-383423 -46160,-53227 -141747,-79840 -286211,-79840l-472495 0 0 1313216z"/>
  <path id="_3" class="fil0" d="M12692663 1760672l0 389948c0,202572 22804,330196 68423,381799 45628,52134 141206,78206 286762,78206l117851 0c145005,0 241134,-26613 287845,-79840 46701,-52675 70057,-179768 70057,-380165l0 -389948c0,-201490 -23356,-329113 -70057,-382881 -46711,-53768 -142840,-80381 -287845,-80381l-117851 0c-144464,0 -239510,26613 -285670,79840 -46160,52675 -69515,180850 -69515,383423zm-648463 -52675c0,-359536 67350,-610994 202031,-753824 134691,-142830 369309,-213979 704397,-213979l311742 0c336180,0 571881,71691 707113,215062 135232,143381 202572,394288 202572,752742l0 492041c0,358443 -67340,609360 -202572,752732 -135232,143381 -370933,215072 -707113,215072l-311742 0c-335088,0 -569706,-71149 -704397,-213979 -134681,-142840 -202031,-394288 -202031,-753824l0 -492041z"/>
  <path id="_4" class="fil0" d="M14474554 2405326l609360 0 0 23897c0,85814 22814,145556 68433,179227 45619,34211 126000,51052 241675,51052l159129 0c96670,0 164010,-13041 202572,-39103 38562,-25531 58118,-71691 58118,-137407l0 -103186c0,-55943 -15206,-96670 -46170,-120567 -30412,-24438 -99928,-43453 -208005,-55943l-515397 -55933c-191716,-21180 -332381,-80923 -420902,-180309 -88521,-99387 -132515,-246567 -132515,-441541l0 -146639c0,-110243 17381,-208546 52675,-295443 34763,-86355 85814,-157495 152613,-212355 57026,-47784 126541,-82005 208005,-101552 81464,-19556 203665,-29330 365510,-29330l380706 0c236794,0 417644,47794 542561,143381 125449,95578 187907,233526 187907,414376l0 162387 -609350 0 0 -25521c0,-71149 -16840,-120567 -49969,-148273 -33670,-27696 -93954,-41268 -180850,-41268l-146639 0c-101011,0 -169985,11948 -208005,35845 -37479,23897 -56484,65165 -56484,123283l0 98845c0,86887 85273,140114 256340,159119l0 0 469237 52685c203123,23356 354103,82005 454031,177051 99928,95036 149897,228644 149897,400263l0 227552c0,196067 -60825,353020 -183026,470871 -122191,117851 -286211,177051 -492041,177051l-517572 0c-276438,0 -477928,-47794 -603386,-143381 -125459,-95587 -188459,-247650 -188459,-455655l0 -163479z"/>
  <path id="_5" class="fil1" d="M16836486 3138511l0 -2368989 1111726 0c312273,0 536036,61366 670726,183567 134681,122732 202031,324222 202031,605551l0 155871c0,281861 -67350,484443 -202582,607185 -135232,123274 -358985,184650 -670175,184650l-476304 0 0 632165 -635422 0zm635422 -1160061l442624 0c104278,0 173252,-18464 206922,-55933 34221,-36928 51052,-111876 51052,-224304l0 -136856c0,-93954 -21722,-161304 -64624,-200948 -42912,-39644 -115685,-59742 -218871,-59742l-417103 0 0 677783z"/>
  <path id="_6" class="fil1" d="M20727788 2411842c0,254716 -55402,444257 -165644,569175 -110252,124366 -279154,186825 -506716,186825l-292727 0c-257974,0 -441541,-54851 -551793,-164562 -109701,-110252 -164552,-291644 -164552,-545268l0 -336180 619134 0 0 270464c0,85263 11397,142830 33670,172701 22263,30412 61907,45628 118933,45628l115134 0c57026,0 96680,-15216 118943,-45628 22263,-29871 33670,-87438 33670,-172701l0 -1622773 641948 0 0 1642319z"/>
  <g id="_1535888248192">
   <rect class="fil2" x="1221689" y="-3" width="1145865" height="1145865"/>
   <rect class="fil3" x="3117419" y="779898" width="1103735" height="1103735"/>
   <rect class="fil3" x="1933641" y="1335612" width="876246" height="876246"/>
   <rect class="fil4" x="2519212" y="198543" width="429694" height="429694"/>
   <rect class="fil5" x="3050011" y="2144819" width="783573" height="783573"/>
   <rect class="fil3" x="2182185" y="3029491" width="707745" height="707745"/>
   <rect class="fil6" x="648753" y="1335609" width="977358" height="977358"/>
   <rect class="fil4" x="1803041" y="3505435" width="610945" height="610945"/>
   <rect class="fil5" x="1794617" y="2401601" width="438126" height="438126"/>
   <rect class="fil3" x="463400" y="589784" width="556077" height="556077"/>
   <rect class="fil3" x="-5" y="1145860" width="463404" height="463404"/>
   <rect class="fil5" x="2561338" y="805165" width="345440" height="345440"/>
   <rect class="fil4" x="2485508" y="2464796" width="311743" height="311743"/>
  </g>
 </g>
</svg>
