<?xml version="1.0" encoding="UTF-8"?>
<!DOCTYPE svg PUBLIC "-//W3C//DTD SVG 1.1//EN" "http://www.w3.org/Graphics/SVG/1.1/DTD/svg11.dtd">
<!-- Creator: CorelDRAW 2021 (64-Bit) -->
<svg xmlns="http://www.w3.org/2000/svg" xml:space="preserve" width="209.744mm" height="41.8238mm" version="1.1" style="shape-rendering:geometricPrecision; text-rendering:geometricPrecision; image-rendering:optimizeQuality; fill-rule:evenodd; clip-rule:evenodd"
viewBox="0 0 20974420 4182382"
 xmlns:xlink="http://www.w3.org/1999/xlink"
 xmlns:xodm="http://www.corel.com/coreldraw/odm/2003">
 <defs>
  <style type="text/css">
   <![CDATA[
    .fil7 {fill:#209EBB}
    .fil5 {fill:#209EBB}
    .fil4 {fill:#23465D}
    .fil3 {fill:#679A17}
    .fil6 {fill:#679A17}
    .fil1 {fill:#23465D;fill-rule:nonzero}
    .fil2 {fill:#679A17;fill-rule:nonzero}
    .fil0 {fill:gray;fill-rule:nonzero}
   ]]>
  </style>
 </defs>
 <g id="Layer_x0020_1">
  <metadata id="CorelCorpID_0Corel-Layer"/>
  <g id="_1535486568272">
   <path class="fil0" d="M4932502 3491732l0 -91520c0,-30120 -7000,-50830 -21130,-61960 -14140,-11140 -44690,-16710 -91810,-16710l-192890 0 0 249290 192890 0c46260,0 76670,-5710 91230,-17130 14420,-11430 21710,-32130 21710,-61970zm-374360 386640l0 -622790 262280 0c69960,0 118070,10420 144490,31120 26410,20710 39550,57690 39550,110940l0 94090c0,54830 -13000,92660 -39120,113650 -26130,20990 -74390,31410 -144920,31410l-193750 0 0 241580 -68530 0z"/>
   <path id="_1" class="fil0" d="M5130532 3615382l249290 0 0 -17140c0,-41260 -7420,-69240 -22130,-84090 -14850,-14710 -44120,-22130 -87810,-22130l-30550 0c-43550,0 -72530,7420 -87100,22130 -14420,14850 -21700,42830 -21700,84090l0 17140zm109650 268990c-65820,0 -111790,-12850 -138060,-38550 -26130,-25560 -39260,-70680 -39260,-135210l0 -104370c0,-64820 12990,-109940 39120,-135640 25980,-25700 71810,-38550 137350,-38550l30550 0c65820,0 111940,12850 138210,38550 26270,25700 39410,70820 39410,135640l0 66530 -316970 430c-280,4430 -430,9420 -570,14710 -140,5420 -280,12990 -280,22700 0,45540 7280,75950 21840,91370 14420,15570 43690,23280 87810,23280l30550 0c39270,0 66540,-5710 81960,-16990 15270,-11280 24270,-30990 26700,-59260l68100 0c-3280,47830 -18700,82240 -46120,103520 -27410,21270 -70670,31840 -129920,31840l-30420 0z"/>
   <path id="_2" class="fil0" d="M5548583 3747302l65960 0 0 10000c0,27120 8430,45830 25130,56110 16710,10130 50260,15270 100800,15270 56540,0 91380,-5140 104510,-15560 13140,-10280 19710,-30270 19710,-59820 0,-28700 -5430,-47980 -16140,-57540 -10700,-9710 -37550,-15560 -80380,-17850 -15990,-860 -37410,-1710 -64390,-2570 -59110,-1570 -94230,-5710 -105370,-11990 -16710,-9280 -28700,-21850 -35700,-37690 -7130,-15850 -10700,-38700 -10700,-68540 0,-48830 12420,-81810 37260,-99080 24700,-17280 79380,-25990 163910,-25990 65530,0 109790,8280 133070,24700 23270,16420 34980,45400 34980,86670l-65110 0 0 -4140c0,-19560 -8420,-32990 -25270,-40410 -16990,-7420 -50540,-11140 -100660,-11140 -48690,0 -79530,4430 -92950,13420 -13420,8860 -20130,27560 -20130,55970 0,17280 1290,29270 3710,36270 2570,6990 7000,12280 13430,15850 13130,6990 42110,10990 87090,12130 11420,290 20270,570 26410,860 36840,1430 65680,3280 86670,5710 20990,2280 35840,5570 44830,9850 19560,8850 33410,21700 41690,38410 8140,16850 12280,41120 12280,72960 0,32260 -4000,56970 -12140,73670 -8130,16700 -22550,31550 -43540,44400 -9430,6140 -24990,10570 -46410,13140 -21550,2710 -51390,4000 -89660,4000 -78100,0 -129780,-9000 -155050,-26990 -25280,-18130 -37840,-50830 -37840,-98370l0 -11710z"/>
   <path id="_3" class="fil0" d="M6354693 3694332l0 -71820c0,-46110 -10700,-79380 -31980,-100220 -21410,-20710 -55540,-31130 -102370,-31130 -42690,0 -71100,7710 -85240,22990 -14130,15270 -21130,50830 -21130,106650l0 75240c0,55540 7000,90950 21130,106230 14140,15280 42550,22990 85240,22990 46830,0 80960,-10430 102370,-31130 21280,-20840 31980,-54110 31980,-99800zm65110 -256280l0 609080 -65110 0 0 -231440c-12270,24270 -28980,41830 -50250,52540 -21130,10710 -49830,16140 -86100,16140 -62820,0 -107220,-13000 -133070,-39120 -25980,-26130 -38970,-70960 -38970,-134500l0 -104660c0,-63820 12990,-108790 38970,-134920 25850,-26130 70250,-39120 133070,-39120 37550,0 67540,6000 89670,17990 22270,11990 38550,30840 49250,56540l0 -68530 62540 0z"/>
   <path id="_4" class="fil0" d="M6915103 3438052l0 440320 -62680 0 0 -59820c-10280,22410 -27270,38970 -50970,49680 -23700,10710 -54970,16140 -93810,16140 -57540,0 -97800,-11710 -121070,-34980 -23130,-23280 -34700,-64110 -34700,-122360l0 -288980 65110 0 0 275130c0,45690 6850,75810 20560,90380 13560,14420 40260,21700 79810,21700 45690,0 79100,-10430 100230,-31410 20990,-20850 31550,-53970 31550,-99520l0 -256280 65970 0z"/>
   <path id="_5" class="fil0" d="M7049743 3329252l0 -73670 65100 0 0 73670 -65100 0zm0 549120l0 -440320 65100 0 0 440320 -65100 0z"/>
   <path id="_6" class="fil0" d="M7233783 3747302l65960 0 0 10000c0,27120 8430,45830 25130,56110 16710,10130 50260,15270 100800,15270 56540,0 91380,-5140 104510,-15560 13140,-10280 19710,-30270 19710,-59820 0,-28700 -5430,-47980 -16140,-57540 -10700,-9710 -37550,-15560 -80380,-17850 -15990,-860 -37410,-1710 -64390,-2570 -59110,-1570 -94230,-5710 -105370,-11990 -16710,-9280 -28700,-21850 -35700,-37690 -7130,-15850 -10700,-38700 -10700,-68540 0,-48830 12420,-81810 37260,-99080 24700,-17280 79380,-25990 163910,-25990 65530,0 109790,8280 133070,24700 23270,16420 34980,45400 34980,86670l-65110 0 0 -4140c0,-19560 -8420,-32990 -25270,-40410 -16990,-7420 -50540,-11140 -100660,-11140 -48690,0 -79530,4430 -92950,13420 -13420,8860 -20130,27560 -20130,55970 0,17280 1290,29270 3710,36270 2570,6990 7000,12280 13430,15850 13130,6990 42110,10990 87090,12130 11420,290 20270,570 26410,860 36840,1430 65680,3280 86670,5710 20990,2280 35840,5570 44830,9850 19560,8850 33410,21700 41690,38410 8140,16850 12280,41120 12280,72960 0,32260 -4000,56970 -12140,73670 -8130,16700 -22550,31550 -43540,44400 -9430,6140 -24990,10570 -46410,13140 -21550,2710 -51390,4000 -89660,4000 -78100,0 -129780,-9000 -155050,-26990 -25280,-18130 -37840,-50830 -37840,-98370l0 -11710z"/>
   <path id="_7" class="fil0" d="M8037324 3766152l0 -46400c0,-20990 -10700,-36270 -31980,-45980 -21270,-9850 -55250,-14700 -101800,-14700 -42550,0 -71100,5420 -85380,16130 -14420,10710 -21560,31270 -21560,61680 0,34690 7570,57680 22850,69250 15130,11560 45540,17410 91230,17410 40980,0 72250,-4990 94090,-14850 21700,-9850 32550,-24120 32550,-42540zm3290 65820c-10000,18420 -25990,31690 -47830,39980 -21990,8280 -52260,12420 -91090,12420 -68820,0 -115080,-9850 -138500,-29560 -23410,-19700 -35120,-56250 -35120,-109940 0,-30980 2710,-55250 8140,-72810 5420,-17560 14420,-31700 26980,-42260 10570,-9000 26130,-15280 46690,-18990 20560,-3860 49970,-5710 88520,-5710 39840,0 70390,3280 91380,9850 21130,6560 36980,17420 47540,32840l0 -75960c0,-35980 -6990,-59250 -20840,-69960 -13990,-10570 -48970,-15850 -104940,-15850 -40690,0 -67820,4280 -81240,12850 -13280,8420 -20280,24410 -20850,47970l-65100 0 0 -10130c0,-37700 12130,-64540 36550,-80530 24410,-16130 66530,-24130 126210,-24130 46550,0 81960,2000 106230,5850 24270,3860 42260,10140 53970,18850 12850,9990 21840,22420 27120,37270 5290,14700 8000,40120 8000,76100l0 308250 -59250 0 -2570 -46400z"/>
   <path id="_8" class="fil0" d="M8217224 3747302l65960 0 0 10000c0,27120 8430,45830 25130,56110 16710,10130 50260,15270 100800,15270 56540,0 91380,-5140 104510,-15560 13140,-10280 19710,-30270 19710,-59820 0,-28700 -5430,-47980 -16140,-57540 -10700,-9710 -37550,-15560 -80380,-17850 -15990,-860 -37410,-1710 -64390,-2570 -59110,-1570 -94230,-5710 -105370,-11990 -16710,-9280 -28700,-21850 -35700,-37690 -7130,-15850 -10700,-38700 -10700,-68540 0,-48830 12420,-81810 37260,-99080 24700,-17280 79380,-25990 163910,-25990 65530,0 109790,8280 133070,24700 23270,16420 34980,45400 34980,86670l-65110 0 0 -4140c0,-19560 -8420,-32990 -25270,-40410 -16990,-7420 -50540,-11140 -100660,-11140 -48690,0 -79530,4430 -92950,13420 -13420,8860 -20130,27560 -20130,55970 0,17280 1290,29270 3710,36270 2570,6990 7000,12280 13430,15850 13130,6990 42110,10990 87090,12130 11420,290 20270,570 26410,860 36840,1430 65680,3280 86670,5710 20990,2280 35840,5570 44830,9850 19560,8850 33410,21700 41690,38410 8140,16850 12280,41120 12280,72960 0,32260 -4000,56970 -12140,73670 -8130,16700 -22550,31550 -43540,44400 -9430,6140 -24990,10570 -46410,13140 -21550,2710 -51390,4000 -89660,4000 -78100,0 -129780,-9000 -155050,-26990 -25280,-18130 -37840,-50830 -37840,-98370l0 -11710z"/>
   <path id="_9" class="fil0" d="M9312744 3694332l0 -71820c0,-46110 -10700,-79380 -31980,-100220 -21410,-20710 -55540,-31130 -102370,-31130 -42690,0 -71100,7710 -85240,22990 -14130,15270 -21130,50830 -21130,106650l0 75240c0,55540 7000,90950 21130,106230 14140,15280 42550,22990 85240,22990 46830,0 80960,-10430 102370,-31130 21280,-20840 31980,-54110 31980,-99800zm2570 116360c-10420,25700 -26700,44410 -48830,56120 -22130,11700 -52250,17560 -90090,17560 -62820,0 -107220,-13000 -133070,-39120 -25980,-26130 -38970,-70960 -38970,-134500l0 -104660c0,-63820 12990,-108790 38970,-134920 25850,-26130 70250,-39120 133070,-39120 36270,0 64970,5430 86100,16130 21270,10710 37980,28270 50250,52550l0 -245150 65110 0 0 622790 -62540 0 0 -67680z"/>
   <path id="_10" class="fil0" d="M9563895 3615382l249290 0 0 -17140c0,-41260 -7420,-69240 -22130,-84090 -14850,-14710 -44120,-22130 -87810,-22130l-30550 0c-43550,0 -72530,7420 -87100,22130 -14420,14850 -21700,42830 -21700,84090l0 17140zm109650 268990c-65820,0 -111790,-12850 -138060,-38550 -26130,-25560 -39260,-70680 -39260,-135210l0 -104370c0,-64820 12990,-109940 39120,-135640 25980,-25700 71810,-38550 137350,-38550l30550 0c65820,0 111940,12850 138210,38550 26270,25700 39410,70820 39410,135640l0 66530 -316970 430c-280,4430 -430,9420 -570,14710 -140,5420 -280,12990 -280,22700 0,45540 7280,75950 21840,91370 14420,15570 43690,23280 87810,23280l30550 0c39270,0 66540,-5710 81960,-16990 15270,-11280 24270,-30990 26700,-59260l68100 0c-3280,47830 -18700,82240 -46120,103520 -27410,21270 -70670,31840 -129920,31840l-30420 0z"/>
   <polygon id="_11" class="fil0" points="10295335,3878372 10295335,3255582 10364725,3255582 10364725,3878372 "/>
   <path id="_12" class="fil0" d="M10507645 3878372l0 -440320 62530 0 0 60250c10710,-22700 27700,-39410 51120,-50120 23410,-10700 54250,-16130 92800,-16130 57680,0 98090,11710 121220,34980 23130,23270 34690,64250 34690,122790l0 288550 -65100 0 0 -274700c0,-45980 -6710,-76250 -20280,-90810 -13560,-14420 -39830,-21700 -78810,-21700 -46120,0 -79670,10570 -101090,31550 -21270,21130 -31980,54260 -31980,99800l0 255860 -65100 0z"/>
   <path id="_13" class="fil0" d="M10953245 3493732l0 -55680 61680 0c0,-3290 0,-7140 -140,-11570 -140,-4280 -290,-10280 -290,-18130 0,-56110 9860,-95520 29420,-118510 19700,-22840 53680,-34260 102220,-34260 12570,0 24850,280 36700,850 11990,580 23980,1430 35980,2430l0 59250c-3570,-280 -8570,-570 -14990,-850 -19280,-570 -32560,-860 -39840,-860 -33690,0 -56110,5140 -67250,15280 -11130,10280 -16700,35690 -16700,76530l0 29840 138780 0 0 55680 -138780 0 0 384640 -65110 0 0 -384640 -61680 0z"/>
   <path id="_14" class="fil0" d="M11588036 3696042l0 -75240c0,-55540 -7000,-90810 -21130,-105940 -14140,-15280 -43690,-22840 -88810,-22840l-30550 0c-44980,0 -74250,7560 -88090,22560 -13850,15130 -20710,50540 -20710,106220l0 75240c0,55970 7000,91520 20850,106660 13990,14990 43260,22560 87950,22560l30550 0c44830,0 74390,-7710 88670,-22990 14130,-15280 21270,-50690 21270,-106230zm-139640 188330c-65820,0 -111790,-12850 -138060,-38550 -26130,-25560 -39260,-70680 -39260,-135070l0 -104660c0,-64670 12990,-109790 39120,-135490 25980,-25700 71810,-38550 137350,-38550l30550 0c65820,0 111940,12850 138210,38550 26270,25700 39410,70820 39410,135490l0 104660c0,64680 -13000,109800 -39120,135350 -26130,25560 -72110,38270 -137780,38270l-30420 0z"/>
   <path id="_15" class="fil0" d="M11772216 3878372l0 -440320 63390 0 0 60250c9280,-22990 23560,-39690 43120,-50260 19560,-10710 45400,-15990 77810,-15990 47980,0 81670,11570 100950,34690 19410,23280 29120,64250 29120,123080l0 3430 -65960 0 0 -13000c0,-35120 -5570,-58820 -16700,-70960 -11140,-12130 -32130,-18130 -63110,-18130 -36120,0 -62250,10280 -78390,30700 -16130,20560 -24270,54110 -24270,100650l0 255860 -65960 0z"/>
   <path id="_16" class="fil0" d="M12183266 3878372l0 -440320 63390 0 0 60250c9280,-22700 24700,-39410 46260,-50120 21700,-10700 50260,-16130 85670,-16130 37410,0 66530,5710 87660,17130 20990,11570 36700,30130 47120,55830 12710,-25700 29700,-44260 50680,-55830 21140,-11420 48690,-17130 82670,-17130 57680,0 97660,11420 119930,34270 22280,22980 33410,64100 33410,123500l0 288550 -65100 0 0 -267990c0,-49120 -6280,-81240 -18990,-96380 -12710,-15270 -37410,-22840 -74240,-22840 -40700,0 -70250,10420 -88810,31130 -18560,20840 -27840,54110 -27840,100220l0 255860 -63400 0 0 -298120c0,-34840 -6280,-58390 -18990,-70670 -12700,-12280 -36970,-18420 -72670,-18420 -41690,0 -72530,10570 -92090,31840 -19700,21130 -29550,54250 -29550,99510l0 255860 -65110 0z"/>
   <path id="_17" class="fil0" d="M13218816 3766152l0 -46400c0,-20990 -10700,-36270 -31980,-45980 -21270,-9850 -55250,-14700 -101800,-14700 -42550,0 -71100,5420 -85380,16130 -14420,10710 -21560,31270 -21560,61680 0,34690 7570,57680 22850,69250 15130,11560 45540,17410 91230,17410 40980,0 72250,-4990 94090,-14850 21700,-9850 32550,-24120 32550,-42540zm3290 65820c-10000,18420 -25990,31690 -47830,39980 -21990,8280 -52260,12420 -91090,12420 -68820,0 -115080,-9850 -138500,-29560 -23410,-19700 -35120,-56250 -35120,-109940 0,-30980 2710,-55250 8140,-72810 5420,-17560 14420,-31700 26980,-42260 10570,-9000 26130,-15280 46690,-18990 20560,-3860 49970,-5710 88520,-5710 39840,0 70390,3280 91380,9850 21130,6560 36980,17420 47540,32840l0 -75960c0,-35980 -6990,-59250 -20840,-69960 -13990,-10570 -48970,-15850 -104940,-15850 -40690,0 -67820,4280 -81240,12850 -13280,8420 -20280,24410 -20850,47970l-65100 0 0 -10130c0,-37700 12130,-64540 36550,-80530 24410,-16130 66530,-24130 126210,-24130 46550,0 81960,2000 106230,5850 24270,3860 42260,10140 53970,18850 12850,9990 21840,22420 27120,37270 5290,14700 8000,40120 8000,76100l0 308250 -59250 0 -2570 -46400z"/>
   <path id="_18" class="fil0" d="M13574326 3884372c-65820,0 -111790,-12850 -138060,-38550 -26130,-25700 -39260,-70680 -39260,-135210l0 -104370c0,-64680 12990,-109940 39120,-135640 25980,-25700 71810,-38550 137350,-38550l30550 0c62250,0 107080,11990 134640,35840 27560,23840 41830,62960 42980,117500l-67680 430c-1430,-35690 -9420,-60250 -24270,-73670 -14710,-13420 -43410,-20130 -85670,-20130l-30550 0c-44980,0 -74250,7560 -88090,22560 -13850,15130 -20710,50540 -20710,106220l0 75240c0,55970 7000,91520 20850,106660 13990,14990 43260,22560 87950,22560l30550 0c42840,0 71960,-7280 87100,-21990 15270,-14560 22840,-41410 22840,-80100l0 -7570 67680 0 0 8430c0,57390 -13570,98510 -40840,123210 -27270,24710 -72530,37130 -136060,37130l-30420 0zm19710 -6000l0 47970 26840 0c26410,0 43550,3720 51400,11280 7850,7570 11710,26700 11710,57400 0,33690 -3710,54680 -11140,62960 -7280,8140 -24410,12280 -51110,12280l-110800 0 0 -36830 89380 0c14850,0 23840,-2000 27270,-5860 3280,-3850 5000,-15420 5000,-34550 0,-16990 -1430,-27410 -4430,-31550 -2850,-4000 -12420,-6000 -28700,-6000l-32840 0 0 -77100 27420 0z"/>
   <path id="_19" class="fil0" d="M14197977 3696042l0 -75240c0,-55540 -7000,-90810 -21130,-105940 -14140,-15280 -43690,-22840 -88810,-22840l-30550 0c-44980,0 -74250,7560 -88090,22560 -13850,15130 -20710,50540 -20710,106220l0 75240c0,55970 7000,91520 20850,106660 13990,14990 43260,22560 87950,22560l30550 0c44830,0 74390,-7710 88670,-22990 14130,-15280 21270,-50690 21270,-106230zm-139640 188330c-65820,0 -111790,-12850 -138060,-38550 -26130,-25560 -39260,-70680 -39260,-135070l0 -104660c0,-64670 12990,-109790 39120,-135490 25980,-25700 71810,-38550 137350,-38550l30550 0c65820,0 111940,12850 138210,38550 26270,25700 39410,70820 39410,135490l0 104660c0,64680 -13000,109800 -39120,135350 -26130,25560 -72110,38270 -137780,38270l-30420 0zm136210 -608230c-7280,25130 -17560,43970 -30980,56540 -13280,12560 -29550,18840 -48830,18840 -3850,0 -8140,-280 -12710,-1000 -4710,-710 -9560,-1850 -14840,-3140l-39700 -11850c-5140,-1570 -9280,-2850 -12560,-3570 -3430,-710 -6710,-1000 -9990,-1000 -7860,0 -15140,2570 -21850,7860 -6710,5280 -12280,12700 -16700,22130l-33410 0c6140,-24270 16130,-42980 30120,-55970 13850,-12990 30980,-19420 51400,-19420 4430,0 8430,290 12140,860 3570,570 6990,1430 9990,2570l40550 12990c3280,1000 7140,2000 11280,2860 4140,850 8140,1280 11710,1280 9420,0 17420,-2430 23980,-7280 6570,-4850 12000,-12420 16140,-22700l34260 0z"/>
   <path id="_20" class="fil0" d="M14432697 3615382l249290 0 0 -17140c0,-41260 -7420,-69240 -22130,-84090 -14850,-14710 -44120,-22130 -87810,-22130l-30550 0c-43550,0 -72530,7420 -87100,22130 -14420,14850 -21700,42830 -21700,84090l0 17140zm109650 268990c-65820,0 -111790,-12850 -138060,-38550 -26130,-25560 -39260,-70680 -39260,-135210l0 -104370c0,-64820 12990,-109940 39120,-135640 25980,-25700 71810,-38550 137350,-38550l30550 0c65820,0 111940,12850 138210,38550 26270,25700 39410,70820 39410,135640l0 66530 -316970 430c-280,4430 -430,9420 -570,14710 -140,5420 -280,12990 -280,22700 0,45540 7280,75950 21840,91370 14420,15570 43690,23280 87810,23280l30550 0c39270,0 66540,-5710 81960,-16990 15270,-11280 24270,-30990 26700,-59260l68100 0c-3280,47830 -18700,82240 -46120,103520 -27410,21270 -70670,31840 -129920,31840l-30420 0z"/>
   <path id="_21" class="fil0" d="M14850747 3747302l65960 0 0 10000c0,27120 8430,45830 25130,56110 16710,10130 50260,15270 100800,15270 56540,0 91380,-5140 104510,-15560 13140,-10280 19710,-30270 19710,-59820 0,-28700 -5430,-47980 -16140,-57540 -10700,-9710 -37550,-15560 -80380,-17850 -15990,-860 -37410,-1710 -64390,-2570 -59110,-1570 -94230,-5710 -105370,-11990 -16710,-9280 -28700,-21850 -35700,-37690 -7130,-15850 -10700,-38700 -10700,-68540 0,-48830 12420,-81810 37260,-99080 24700,-17280 79380,-25990 163910,-25990 65530,0 109790,8280 133070,24700 23270,16420 34980,45400 34980,86670l-65110 0 0 -4140c0,-19560 -8420,-32990 -25270,-40410 -16990,-7420 -50540,-11140 -100660,-11140 -48690,0 -79530,4430 -92950,13420 -13420,8860 -20130,27560 -20130,55970 0,17280 1290,29270 3710,36270 2570,6990 7000,12280 13430,15850 13130,6990 42110,10990 87090,12130 11420,290 20270,570 26410,860 36840,1430 65680,3280 86670,5710 20990,2280 35840,5570 44830,9850 19560,8850 33410,21700 41690,38410 8140,16850 12280,41120 12280,72960 0,32260 -4000,56970 -12140,73670 -8130,16700 -22550,31550 -43540,44400 -9430,6140 -24990,10570 -46410,13140 -21550,2710 -51390,4000 -89660,4000 -78100,0 -129780,-9000 -155050,-26990 -25280,-18130 -37840,-50830 -37840,-98370l0 -11710z"/>
   <polygon id="_22" class="fil0" points="15663577,3878372 15663577,3255582 16100468,3255582 16100468,3321542 15732108,3321542 15732108,3525432 16090048,3525432 16090048,3588822 15732108,3588822 15732108,3813262 16100468,3813262 16100468,3878372 "/>
   <path id="_23" class="fil0" d="M16212838 3878372l0 -440320 63390 0 0 60250c9280,-22700 24700,-39410 46260,-50120 21700,-10700 50260,-16130 85670,-16130 37410,0 66530,5710 87660,17130 20990,11570 36700,30130 47120,55830 12710,-25700 29700,-44260 50680,-55830 21140,-11420 48690,-17130 82660,-17130 57680,0 97660,11420 119930,34270 22280,22980 33410,64100 33410,123500l0 288550 -65100 0 0 -267990c0,-49120 -6280,-81240 -18990,-96380 -12710,-15270 -37410,-22840 -74240,-22840 -40690,0 -70240,10420 -88800,31130 -18560,20840 -27840,54110 -27840,100220l0 255860 -63400 0 0 -298120c0,-34840 -6280,-58390 -18990,-70670 -12700,-12280 -36970,-18420 -72670,-18420 -41690,0 -72530,10570 -92090,31840 -19700,21130 -29550,54250 -29550,99510l0 255860 -65110 0z"/>
   <path id="_24" class="fil0" d="M17026508 3694332c0,45690 10710,78960 31980,99800 21270,20700 55540,31130 102660,31130 42540,0 70960,-7710 84950,-22990 14130,-15280 21130,-50690 21130,-106230l0 -75240c0,-55820 -7000,-91380 -21130,-106650 -13990,-15280 -42410,-22990 -84950,-22990 -47120,0 -81390,10420 -102660,31130 -21270,20840 -31980,54110 -31980,100220l0 71820zm-65110 -256280l62540 0 0 68530c10710,-25700 27130,-44550 49540,-56540 22420,-11990 52540,-17990 90090,-17990 62680,0 106940,12990 132640,38980 25850,25840 38700,70960 38700,135060l0 104660c0,63820 -12850,108800 -38700,134640 -25700,25980 -69960,38980 -132640,38980 -36260,0 -64960,-5430 -86230,-16140 -21420,-10710 -38270,-28270 -50830,-52540l0 231440 -65110 0 0 -609080z"/>
   <path id="_25" class="fil0" d="M17451558 3878372l0 -440320 63390 0 0 60250c9280,-22990 23560,-39690 43120,-50260 19560,-10710 45400,-15990 77810,-15990 47980,0 81670,11570 100950,34690 19410,23280 29120,64250 29120,123080l0 3430 -65960 0 0 -13000c0,-35120 -5570,-58820 -16700,-70960 -11140,-12130 -32130,-18130 -63110,-18130 -36120,0 -62250,10280 -78390,30700 -16130,20560 -24270,54110 -24270,100650l0 255860 -65960 0z"/>
   <path id="_26" class="fil0" d="M17902869 3615382l249290 0 0 -17140c0,-41260 -7420,-69240 -22130,-84090 -14850,-14710 -44120,-22130 -87810,-22130l-30550 0c-43550,0 -72530,7420 -87100,22130 -14420,14850 -21700,42830 -21700,84090l0 17140zm109650 268990c-65820,0 -111790,-12850 -138060,-38550 -26130,-25560 -39260,-70680 -39260,-135210l0 -104370c0,-64820 12990,-109940 39120,-135640 25980,-25700 71810,-38550 137350,-38550l30550 0c65820,0 111940,12850 138210,38550 26270,25700 39410,70820 39410,135640l0 66530 -316970 430c-280,4430 -430,9420 -570,14710 -140,5420 -280,12990 -280,22700 0,45540 7280,75950 21840,91370 14420,15570 43690,23280 87810,23280l30550 0c39270,0 66540,-5710 81960,-16990 15270,-11280 24270,-30990 26700,-59260l68100 0c-3280,47830 -18700,82240 -46120,103520 -27410,21270 -70670,31840 -129920,31840l-30420 0z"/>
   <path id="_27" class="fil0" d="M18320919 3747302l65960 0 0 10000c0,27120 8430,45830 25130,56110 16710,10130 50260,15270 100800,15270 56540,0 91380,-5140 104510,-15560 13140,-10280 19710,-30270 19710,-59820 0,-28700 -5430,-47980 -16140,-57540 -10700,-9710 -37550,-15560 -80380,-17850 -15990,-860 -37410,-1710 -64390,-2570 -59110,-1570 -94230,-5710 -105370,-11990 -16710,-9280 -28700,-21850 -35700,-37690 -7130,-15850 -10700,-38700 -10700,-68540 0,-48830 12420,-81810 37260,-99080 24700,-17280 79380,-25990 163910,-25990 65530,0 109790,8280 133070,24700 23270,16420 34980,45400 34980,86670l-65110 0 0 -4140c0,-19560 -8420,-32990 -25270,-40410 -16990,-7420 -50540,-11140 -100660,-11140 -48690,0 -79530,4430 -92950,13420 -13420,8860 -20130,27560 -20130,55970 0,17280 1290,29270 3710,36270 2570,6990 7000,12280 13430,15850 13130,6990 42110,10990 87090,12130 11420,290 20270,570 26410,860 36840,1430 65680,3280 86670,5710 20990,2280 35840,5570 44830,9850 19560,8850 33410,21700 41690,38410 8140,16850 12280,41120 12280,72960 0,32260 -4000,56970 -12140,73670 -8130,16700 -22550,31550 -43540,44400 -9430,6140 -24990,10570 -46410,13140 -21550,2710 -51390,4000 -89660,4000 -78100,0 -129780,-9000 -155050,-26990 -25280,-18130 -37840,-50830 -37840,-98370l0 -11710z"/>
   <path id="_28" class="fil0" d="M19124459 3766152l0 -46400c0,-20990 -10700,-36270 -31980,-45980 -21270,-9850 -55250,-14700 -101800,-14700 -42550,0 -71100,5420 -85380,16130 -14420,10710 -21560,31270 -21560,61680 0,34690 7570,57680 22850,69250 15130,11560 45540,17410 91230,17410 40980,0 72250,-4990 94090,-14850 21700,-9850 32550,-24120 32550,-42540zm3290 65820c-10000,18420 -25990,31690 -47830,39980 -21990,8280 -52260,12420 -91090,12420 -68820,0 -115080,-9850 -138500,-29560 -23410,-19700 -35120,-56250 -35120,-109940 0,-30980 2710,-55250 8140,-72810 5420,-17560 14420,-31700 26980,-42260 10570,-9000 26130,-15280 46690,-18990 20560,-3860 49970,-5710 88520,-5710 39840,0 70390,3280 91380,9850 21130,6560 36980,17420 47540,32840l0 -75960c0,-35980 -6990,-59250 -20840,-69960 -13990,-10570 -48970,-15850 -104940,-15850 -40690,0 -67820,4280 -81240,12850 -13280,8420 -20280,24410 -20850,47970l-65100 0 0 -10130c0,-37700 12130,-64540 36550,-80530 24410,-16130 66530,-24130 126210,-24130 46550,0 81960,2000 106230,5850 24270,3860 42260,10140 53970,18850 12850,9990 21840,22420 27120,37270 5290,14700 8000,40120 8000,76100l0 308250 -59250 0 -2570 -46400z"/>
   <path id="_29" class="fil0" d="M19319779 3878372l0 -440320 63390 0 0 60250c9280,-22990 23560,-39690 43120,-50260 19560,-10710 45400,-15990 77810,-15990 47980,0 81670,11570 100950,34690 19410,23280 29120,64250 29120,123080l0 3430 -65960 0 0 -13000c0,-35120 -5570,-58820 -16700,-70960 -11140,-12130 -32130,-18130 -63110,-18130 -36120,0 -62250,10280 -78390,30700 -16130,20560 -24270,54110 -24270,100650l0 255860 -65960 0z"/>
   <path id="_30" class="fil0" d="M19721409 3329252l0 -73670 65100 0 0 73670 -65100 0zm0 549120l0 -440320 65100 0 0 440320 -65100 0z"/>
   <path id="_31" class="fil0" d="M20209560 3766152l0 -46400c0,-20990 -10700,-36270 -31980,-45980 -21270,-9850 -55250,-14700 -101800,-14700 -42550,0 -71100,5420 -85380,16130 -14420,10710 -21560,31270 -21560,61680 0,34690 7570,57680 22850,69250 15130,11560 45540,17410 91230,17410 40980,0 72250,-4990 94090,-14850 21700,-9850 32550,-24120 32550,-42540zm3290 65820c-10000,18420 -25990,31690 -47830,39980 -21990,8280 -52260,12420 -91090,12420 -68820,0 -115080,-9850 -138500,-29560 -23410,-19700 -35120,-56250 -35120,-109940 0,-30980 2710,-55250 8140,-72810 5420,-17560 14420,-31700 26980,-42260 10570,-9000 26130,-15280 46690,-18990 20560,-3860 49970,-5710 88520,-5710 39840,0 70390,3280 91380,9850 21130,6560 36980,17420 47540,32840l0 -75960c0,-35980 -6990,-59250 -20840,-69960 -13990,-10570 -48970,-15850 -104940,-15850 -40690,0 -67820,4280 -81240,12850 -13280,8420 -20280,24410 -20850,47970l-65100 0 0 -10130c0,-37700 12130,-64540 36550,-80530 24410,-16130 66530,-24130 126210,-24130 46550,0 81960,2000 106230,5850 24270,3860 42260,10140 53970,18850 12850,9990 21840,22420 27120,37270 5290,14700 8000,40120 8000,76100l0 308250 -59250 0 -2570 -46400z"/>
   <path id="_32" class="fil0" d="M20405740 3329252l0 -73670 65100 0 0 73670 -65100 0zm0 549120l0 -440320 65100 0 0 440320 -65100 0z"/>
   <path id="_33" class="fil0" d="M20589780 3747302l65960 0 0 10000c0,27120 8430,45830 25130,56110 16710,10130 50260,15270 100800,15270 56540,0 91380,-5140 104510,-15560 13140,-10280 19710,-30270 19710,-59820 0,-28700 -5430,-47980 -16140,-57540 -10700,-9710 -37550,-15560 -80380,-17850 -15990,-860 -37410,-1710 -64390,-2570 -59110,-1570 -94230,-5710 -105370,-11990 -16710,-9280 -28700,-21850 -35700,-37690 -7130,-15850 -10700,-38700 -10700,-68540 0,-48830 12420,-81810 37260,-99080 24700,-17280 79380,-25990 163910,-25990 65530,0 109790,8280 133070,24700 23270,16420 34980,45400 34980,86670l-65110 0 0 -4140c0,-19560 -8420,-32990 -25270,-40410 -16990,-7420 -50540,-11140 -100660,-11140 -48690,0 -79530,4430 -92950,13420 -13420,8860 -20130,27560 -20130,55970 0,17280 1290,29270 3710,36270 2570,6990 7000,12280 13430,15850 13130,6990 42110,10990 87090,12130 11420,290 20270,570 26410,860 36840,1430 65680,3280 86670,5710 20990,2280 35840,5570 44830,9850 19560,8850 33410,21700 41690,38410 8140,16850 12280,41120 12280,72960 0,32260 -4000,56970 -12140,73670 -8130,16700 -22550,31550 -43540,44400 -9430,6140 -24990,10570 -46410,13140 -21550,2710 -51390,4000 -89660,4000 -78100,0 -129780,-9000 -155050,-26990 -25280,-18130 -37840,-50830 -37840,-98370l0 -11710z"/>
   <path class="fil1" d="M4558052 2548891l0 -2406971 1224461 0c340460,0 578840,71180 715690,213550 136850,141810 205270,390670 205270,746590l0 486690c0,355910 -68420,604780 -205270,746590 -136850,142370 -375230,213550 -715690,213550l-1224461 0zm645610 -536350l480070 0c147890,0 245010,-26490 291360,-79460 46350,-52430 69520,-182100 69520,-387920l0 -396200c0,-205820 -23170,-336050 -70080,-389570 -46900,-54080 -144020,-81120 -290800,-81120l-480070 0 0 1334271z"/>
   <path id="_1_0" class="fil1" d="M7797144 1638411l526980 0 -238930 -997110 -41940 0 -246110 997110zm-919850 910480l691960 -2406971 992700 0 675960 2406971 -691970 0 -108150 -420480 -758730 0 -109810 420480 -691960 0z"/>
   <path id="_2_1" class="fil1" d="M9542505 2548891l0 -2406971 1224461 0c340460,0 578840,71180 715690,213550 136850,141810 205270,390670 205270,746590l0 486690c0,355910 -68420,604780 -205270,746590 -136850,142370 -375230,213550 -715690,213550l-1224461 0zm645610 -536350l480070 0c147890,0 245010,-26490 291360,-79460 46350,-52430 69520,-182100 69520,-387920l0 -396200c0,-205820 -23170,-336050 -70080,-389570 -46900,-54080 -144020,-81120 -290800,-81120l-480070 0 0 1334271z"/>
   <path id="_3_2" class="fil1" d="M12684486 1148961l0 396200c0,205820 23170,335490 69520,387920 46360,52970 143470,79460 291360,79460l119740 0c147330,0 245000,-27040 292460,-81120 47450,-53520 71180,-182650 71180,-386260l0 -396200c0,-204720 -23730,-334390 -71180,-389020 -47460,-54630 -145130,-81670 -292460,-81670l-119740 0c-146780,0 -243350,27040 -290250,81120 -46900,53520 -70630,183750 -70630,389570zm-658860 -53520c0,-365300 68430,-620790 205270,-765910 136850,-145120 375230,-217410 715690,-217410l316740 0c341570,0 581050,72840 718450,218510 137400,145680 205820,400610 205820,764810l0 499930c0,364190 -68420,619130 -205820,764800 -137400,145680 -376880,218520 -718450,218520l-316740 0c-340460,0 -578840,-72290 -715690,-217410 -136840,-145130 -205270,-400610 -205270,-765910l0 -499930z"/>
   <path id="_4_3" class="fil1" d="M14494947 1803951l619130 0 0 24280c0,87190 23180,147890 69530,182100 46350,34760 128020,51870 245550,51870l161680 0c98220,0 166640,-13250 205820,-39730 39180,-25940 59050,-72840 59050,-139610l0 -104840c0,-56840 -15450,-98220 -46910,-122500 -30900,-24830 -101530,-44150 -211340,-56840l-523660 -56830c-194790,-21520 -337710,-82220 -427650,-183200 -89940,-100980 -134640,-250520 -134640,-448620l0 -148990c0,-112010 17660,-211890 53520,-300180 35320,-87740 87190,-160020 155060,-215760 57940,-48550 128570,-83320 211340,-103180 82770,-19870 206930,-29800 371370,-29800l386810 0c240590,0 424340,48560 551260,145680 127460,97110 190920,237270 190920,421020l0 164990 -619120 0 0 -25930c0,-72290 -17110,-122500 -50770,-150650 -34210,-28140 -95460,-41930 -183750,-41930l-148990 0c-102630,0 -172710,12140 -211340,36420 -38080,24280 -57390,66210 -57390,125260l0 100430c0,88280 86640,142360 260450,161670l0 0 476760 53530c206380,23730 359780,83320 461310,179890 101530,96560 152300,232310 152300,406680l0 231200c0,199210 -61800,358680 -185960,478420 -124150,119740 -290800,179890 -499930,179890l-525870 0c-280870,0 -485590,-48560 -613060,-145680 -127470,-97120 -191480,-251620 -191480,-462960l0 -166100z"/>
   <path id="_5_4" class="fil2" d="M16894748 2548891l0 -2406971 1129551 0c317280,0 544630,62350 681480,186510 136840,124700 205270,329420 205270,615260l0 158370c0,286380 -68430,492210 -205830,616920 -137400,125250 -364740,187610 -680920,187610l-483940 0 0 642300 -645610 0zm645610 -1178661l449720 0c105950,0 176030,-18760 210240,-56830 34770,-37520 51870,-113670 51870,-227900l0 -139050c0,-95460 -22070,-163890 -65660,-204170 -43600,-40280 -117540,-60700 -222380,-60700l-423790 0 0 688650z"/>
   <path id="_6_5" class="fil2" d="M20848440 1810571c0,258800 -56290,451380 -168300,578300 -112020,126360 -283630,189820 -514840,189820l-297420 0c-262110,0 -448620,-55730 -560640,-167200 -111460,-112020 -167190,-296320 -167190,-554010l0 -341570 629060 0 0 274800c0,86630 11580,145120 34210,175470 22620,30900 62900,46360 120840,46360l116980 0c57940,0 98230,-15460 120850,-46360 22620,-30350 34210,-88840 34210,-175470l0 -1648791 652240 0 0 1668651z"/>
  </g>
  <g id="_1535486567552">
   <rect class="fil3" x="1241277" y="-3" width="1164236" height="1164236"/>
   <rect class="fil4" x="3167401" y="792402" width="1121431" height="1121431"/>
   <rect class="fil4" x="1964643" y="1357026" width="890295" height="890295"/>
   <rect class="fil5" x="2559603" y="201726" width="436583" height="436583"/>
   <rect class="fil6" x="3098912" y="2179207" width="796136" height="796136"/>
   <rect class="fil4" x="2217172" y="3078063" width="719092" height="719092"/>
   <rect class="fil7" x="659155" y="1357023" width="993028" height="993028"/>
   <rect class="fil5" x="1831949" y="3561638" width="620740" height="620740"/>
   <rect class="fil6" x="1823391" y="2440106" width="445151" height="445151"/>
   <rect class="fil4" x="470830" y="599240" width="564993" height="564993"/>
   <rect class="fil4" x="-5" y="1164232" width="470834" height="470834"/>
   <rect class="fil6" x="2602404" y="818075" width="350979" height="350979"/>
   <rect class="fil5" x="2525358" y="2504315" width="316741" height="316741"/>
  </g>
 </g>
</svg>
